<svg xmlns="http://www.w3.org/2000/svg" viewBox="0 0 520 100" height="36">
  <!-- Left green shelf icon -->
  <!-- Row 1 -->
  <rect x="0"  y="8"  width="30" height="14" rx="2" fill="#1a6b1a"/>
  <rect x="34" y="8"  width="14" height="14" rx="2" fill="#1a6b1a"/>
  <rect x="51" y="8"  width="8"  height="14" rx="2" fill="#1a6b1a"/>
  <!-- Row 2 -->
  <rect x="0"  y="27" width="14" height="14" rx="2" fill="#1a6b1a"/>
  <rect x="18" y="27" width="24" height="14" rx="2" fill="#1a6b1a"/>
  <rect x="46" y="27" width="13" height="14" rx="2" fill="#1a6b1a"/>
  <!-- Row 3 -->
  <rect x="0"  y="46" width="30" height="14" rx="2" fill="#1a6b1a"/>
  <rect x="34" y="46" width="14" height="14" rx="2" fill="#1a6b1a"/>
  <rect x="51" y="46" width="8"  height="14" rx="2" fill="#1a6b1a"/>

  <!-- "shelf" in dark green -->
  <text
    x="72" y="68"
    font-family="'Arial Black','Impact','Helvetica Neue',sans-serif"
    font-weight="900"
    font-size="68"
    fill="#1a6b1a"
    letter-spacing="-2"
  >shelf</text>

  <!-- "cast" in golden yellow -->
  <text
    x="276" y="68"
    font-family="'Arial Black','Impact','Helvetica Neue',sans-serif"
    font-weight="900"
    font-size="68"
    fill="#E8A205"
    letter-spacing="-2"
  >cast</text>

  <!-- Right golden shelf icon -->
  <!-- Row 1 -->
  <rect x="456" y="8"  width="8"  height="14" rx="2" fill="#E8A205"/>
  <rect x="468" y="8"  width="14" height="14" rx="2" fill="#E8A205"/>
  <rect x="486" y="8"  width="30" height="14" rx="2" fill="#E8A205"/>
  <!-- Row 2 -->
  <rect x="456" y="27" width="13" height="14" rx="2" fill="#E8A205"/>
  <rect x="474" y="27" width="24" height="14" rx="2" fill="#E8A205"/>
  <rect x="502" y="27" width="14" height="14" rx="2" fill="#E8A205"/>
  <!-- Row 3 -->
  <rect x="456" y="46" width="8"  height="14" rx="2" fill="#E8A205"/>
  <rect x="468" y="46" width="14" height="14" rx="2" fill="#E8A205"/>
  <rect x="486" y="46" width="30" height="14" rx="2" fill="#E8A205"/>
</svg>
