<?xml version="1.0" encoding="UTF-8"?>
<svg id="Layer_1" data-name="Layer 1" xmlns="http://www.w3.org/2000/svg" viewBox="0 0 892.5 186.5">
  <defs>
    <style>
      .cls-1 {
        fill: #e8a205;
      }

      .cls-2 {
        fill: #005e04;
      }
    </style>
  </defs>
  <path class="cls-2" d="M213.05,97.15c-3.77-1.36-8.94-2.23-15.53-2.61l-12.25-.86c-2.72-.19-4.57-.55-5.55-1.09-.98-.54-1.47-1.34-1.47-2.42,0-1.33.79-2.37,2.37-3.13,1.58-.76,3.96-1.14,7.12-1.14,2.6,0,4.75.27,6.46.81,1.71.54,3.07,1.27,4.08,2.18,1.01.92,1.68,1.98,1.99,3.18h22.03c-.44-3.8-2.14-7.14-5.08-10.02-2.94-2.88-6.85-5.11-11.73-6.7-4.88-1.58-10.45-2.37-16.71-2.37s-11.97.68-16.71,2.04c-4.75,1.36-8.45,3.43-11.11,6.22-2.66,2.79-3.99,6.27-3.99,10.45,0,3.17.85,5.9,2.56,8.21,1.71,2.31,4.53,4.16,8.45,5.55,3.92,1.39,9.21,2.31,15.86,2.75l9.21.66c3.35.25,5.75.65,7.17,1.19,1.42.54,2.14,1.41,2.14,2.61,0,1.39-.9,2.45-2.71,3.18-1.8.73-4.42,1.09-7.83,1.09-2.79,0-5.14-.25-7.08-.76-1.93-.51-3.5-1.23-4.7-2.18-1.2-.95-2.03-2.09-2.47-3.42h-22.03c.19,3.99,1.76,7.5,4.7,10.54,2.94,3.04,7.03,5.38,12.25,7.03,5.22,1.65,11.28,2.47,18.19,2.47s12.52-.73,17.43-2.18c4.91-1.46,8.7-3.66,11.4-6.6,2.69-2.94,4.04-6.6,4.04-10.97,0-3.23-.81-5.98-2.42-8.26-1.61-2.28-4.31-4.1-8.07-5.46Z"/>
  <path class="cls-2" d="M285.79,77.73c-3.7-2.09-8.18-3.13-13.44-3.13-4.31,0-8.26,1-11.87,2.99-2.89,1.6-5.42,3.82-7.6,6.66v-26.74h-21.75v73.12h21.75v-26.02c0-2.6.47-4.81,1.42-6.65.95-1.84,2.31-3.26,4.08-4.27,1.77-1.01,3.86-1.52,6.27-1.52,3.48,0,6.16.95,8.02,2.85,1.87,1.9,2.8,4.62,2.8,8.17v27.44h21.75v-30.58c0-5.13-.98-9.61-2.94-13.44-1.96-3.83-4.8-6.79-8.5-8.88Z"/>
  <path class="cls-2" d="M365.46,88.84c-2.5-5.06-6.09-8.97-10.78-11.73-4.69-2.75-10.35-4.13-17-4.13s-12.05,1.19-17.14,3.56c-5.1,2.37-9.12,5.71-12.06,10.02-2.94,4.31-4.42,9.31-4.42,15s1.52,10.92,4.56,15.29c3.04,4.37,7.18,7.76,12.44,10.16,5.25,2.41,11.24,3.61,17.95,3.61,5.19,0,10.32-.74,15.38-2.23,5.06-1.49,9.53-3.62,13.39-6.41v-12.72c-3.29,2.09-6.92,3.67-10.87,4.75-3.96,1.08-7.99,1.61-12.11,1.61s-7.91-.58-10.83-1.76c-2.91-1.17-5.08-2.86-6.51-5.08-.42-.65-.77-1.35-1.06-2.09h42.8c0-6.84-1.25-12.79-3.75-17.85ZM331.09,88.93c1.87-1.14,4.13-1.71,6.79-1.71,2.41,0,4.48.48,6.22,1.42,1.74.95,3.13,2.33,4.18,4.13.54.94.98,2,1.33,3.18h-23.62c.22-.79.49-1.56.84-2.28.98-2.02,2.41-3.61,4.27-4.75Z"/>
  <rect class="cls-2" x="376.91" y="57.5" width="21.75" height="73.12"/>
  <path class="cls-2" d="M446.51,55.88c-6.4,0-11.81.97-16.24,2.9-4.43,1.93-7.79,4.78-10.07,8.55-2.24,3.7-3.37,8.25-3.41,13.63h-10.93v15.95h10.92v33.71h21.75v-33.71h21.27v-15.95h-21.27v-.66c0-2.85.73-4.95,2.18-6.31,1.46-1.36,4.24-2.04,8.36-2.04,2.22,0,4.31.16,6.27.47,1.96.32,3.93.76,5.89,1.33v-15.76c-2.6-.7-5.02-1.22-7.26-1.57-2.25-.35-4.73-.52-7.45-.52Z"/>
  <path class="cls-1" d="M493.48,90.4c1.9-.98,4.11-1.47,6.65-1.47,3.29,0,6.08.78,8.36,2.33,2.28,1.55,3.74,3.81,4.37,6.79h21.56c-.51-5.06-2.31-9.46-5.41-13.2-3.1-3.74-7.14-6.65-12.11-8.74-4.97-2.09-10.56-3.13-16.76-3.13-6.77,0-12.77,1.22-17.99,3.66-5.22,2.44-9.29,5.81-12.2,10.11-2.91,4.31-4.37,9.34-4.37,15.1s1.46,10.64,4.37,15c2.91,4.37,6.98,7.76,12.2,10.16,5.22,2.41,11.22,3.61,17.99,3.61,6.2,0,11.79-1.04,16.76-3.13,4.97-2.09,9.01-5.02,12.11-8.78,3.1-3.77,4.91-8.15,5.41-13.15h-21.56c-.63,2.72-2.09,4.92-4.37,6.6-2.28,1.68-5.06,2.52-8.36,2.52-2.53,0-4.75-.49-6.65-1.47-1.9-.98-3.36-2.42-4.37-4.32-1.01-1.9-1.52-4.24-1.52-7.03s.51-5.14,1.52-7.07c1.01-1.93,2.47-3.39,4.37-4.37Z"/>
  <path class="cls-1" d="M589.96,74.59l-1.32,10.04c-2.39-3.43-5.29-6.15-8.7-8.14-4.02-2.34-8.63-3.51-13.82-3.51s-9.91,1.19-13.96,3.56c-4.05,2.37-7.2,5.73-9.45,10.07-2.25,4.34-3.37,9.42-3.37,15.24s1.12,10.72,3.37,15.05c2.25,4.34,5.4,7.71,9.45,10.11,4.05,2.41,8.7,3.61,13.96,3.61s9.8-1.19,13.82-3.56c3.42-2.02,6.31-4.76,8.68-8.2l1.34,10.15h22.6l-3.61-27.25,3.61-27.16h-22.6ZM585.4,108.21c-1.65,1.84-3.55,3.29-5.7,4.37-2.15,1.08-4.4,1.61-6.74,1.61s-4.31-.54-6.08-1.61c-1.77-1.08-3.15-2.53-4.13-4.37-.98-1.84-1.47-3.96-1.47-6.36s.49-4.54,1.47-6.41c.98-1.87,2.36-3.34,4.13-4.42,1.77-1.08,3.8-1.61,6.08-1.61s4.59.54,6.74,1.61c2.15,1.08,4.05,2.55,5.7,4.42,1.65,1.87,2.85,4,3.61,6.41-.76,2.41-1.96,4.53-3.61,6.36Z"/>
  <path class="cls-1" d="M675.66,97.15c-3.77-1.36-8.94-2.23-15.53-2.61l-12.25-.86c-2.72-.19-4.57-.55-5.55-1.09-.98-.54-1.47-1.34-1.47-2.42,0-1.33.79-2.37,2.37-3.13,1.58-.76,3.96-1.14,7.12-1.14,2.6,0,4.75.27,6.46.81,1.71.54,3.07,1.27,4.08,2.18,1.01.92,1.68,1.98,1.99,3.18h22.03c-.44-3.8-2.14-7.14-5.08-10.02-2.94-2.88-6.85-5.11-11.73-6.7-4.88-1.58-10.45-2.37-16.71-2.37s-11.97.68-16.71,2.04c-4.75,1.36-8.45,3.43-11.11,6.22-2.66,2.79-3.99,6.27-3.99,10.45,0,3.17.85,5.9,2.56,8.21,1.71,2.31,4.53,4.16,8.45,5.55,3.93,1.39,9.21,2.31,15.86,2.75l9.21.66c3.36.25,5.75.65,7.17,1.19,1.42.54,2.14,1.41,2.14,2.61,0,1.39-.9,2.45-2.71,3.18-1.8.73-4.42,1.09-7.83,1.09-2.79,0-5.14-.25-7.07-.76-1.93-.51-3.5-1.23-4.7-2.18s-2.03-2.09-2.47-3.42h-22.03c.19,3.99,1.76,7.5,4.7,10.54,2.94,3.04,7.03,5.38,12.25,7.03,5.22,1.65,11.28,2.47,18.18,2.47s12.52-.73,17.43-2.18c4.91-1.46,8.7-3.66,11.4-6.6,2.69-2.94,4.04-6.6,4.04-10.97,0-3.23-.81-5.98-2.42-8.26-1.62-2.28-4.31-4.1-8.07-5.46Z"/>
  <path class="cls-1" d="M738.57,113.57c-2.03.41-4.34.62-6.93.62-4.18,0-6.98-.76-8.4-2.28-1.42-1.52-2.14-4.11-2.14-7.79v-13.58h22.03v-15.95h-22.03v-14.72h-12.35l-9.5,16.33-10.83,4.94v9.4h10.83v16.52c0,4.81,1,8.99,2.99,12.53,1.99,3.55,5,6.27,9.02,8.17,4.02,1.9,9.13,2.85,15.34,2.85,3.42,0,6.68-.27,9.78-.81,3.1-.54,5.67-1.12,7.69-1.76v-16.05c-1.65.63-3.48,1.16-5.51,1.57Z"/>
  <g>
    <rect class="cls-2" x="124.76" y="82.89" width="12.5" height="12.52"/>
    <rect class="cls-2" x="91.17" y="82.89" width="29.54" height="12.52"/>
    <rect class="cls-2" x="91.17" y="99.43" width="29.54" height="12.52"/>
    <rect class="cls-2" x="91.17" y="117.09" width="29.54" height="12.52"/>
    <rect class="cls-2" x="57.73" y="99.43" width="29.54" height="12.52"/>
    <rect class="cls-2" x="40.68" y="82.89" width="46.39" height="12.52"/>
    <rect class="cls-2" x="124.76" y="99.43" width="12.5" height="12.52"/>
    <rect class="cls-2" x="124.76" y="117.09" width="12.5" height="12.52"/>
    <rect class="cls-2" x="74.78" y="117.09" width="12.5" height="12.52"/>
  </g>
  <g>
    <rect class="cls-1" x="764.96" y="82.89" width="12.5" height="12.52" transform="translate(1542.41 178.31) rotate(-180)"/>
    <rect class="cls-1" x="781.5" y="82.89" width="29.54" height="12.52" transform="translate(1592.55 178.31) rotate(-180)"/>
    <rect class="cls-1" x="781.5" y="99.43" width="29.54" height="12.52" transform="translate(1592.55 211.39) rotate(-180)"/>
    <rect class="cls-1" x="781.5" y="117.09" width="29.54" height="12.52" transform="translate(1592.55 246.71) rotate(-180)"/>
    <rect class="cls-1" x="814.94" y="99.43" width="29.54" height="12.52" transform="translate(1659.43 211.39) rotate(-180)"/>
    <rect class="cls-1" x="815.15" y="82.89" width="46.39" height="12.52" transform="translate(1676.69 178.31) rotate(-180)"/>
    <rect class="cls-1" x="764.96" y="99.43" width="12.5" height="12.52" transform="translate(1542.41 211.39) rotate(-180)"/>
    <rect class="cls-1" x="764.96" y="117.09" width="12.5" height="12.52" transform="translate(1542.41 246.71) rotate(-180)"/>
    <rect class="cls-1" x="814.94" y="117.09" width="12.5" height="12.52" transform="translate(1642.38 246.71) rotate(-180)"/>
  </g>
</svg>